<svg version="1.1" id="Layer_1" xmlns="http://www.w3.org/2000/svg" xmlns:xlink="http://www.w3.org/1999/xlink" x="0px" y="0px"
	 width="187.25px" height="51.91px" viewBox="0 0 187.25 51.91" enable-background="new 0 0 187.25 51.91" xml:space="preserve">
<g>
	<path fill="#000" d="M10.76,9.79c1.06-5.41,7.26-8.74,12.44-7.68c3.06,1.42,4.29,4.89,4.91,7.97
		c1.26,7.57-0.86,15.48-4.98,21.86c-2.3,3.57-6.26,5.51-10.19,6.72c-1.49,0.29-3.03-0.18-4.34-0.88c-3.59-2.46-5.25-6.77-6.21-10.85
		C1.47,20.17,1.8,12.61,6.13,6.99c1.68-2.55,4.61-3.82,7.19-5.23C7.1,6.49,5.54,14.81,6.44,22.13c0.64,4.83,1.15,10.3,4.98,13.79
		c3.39,0.83,6.33-2.12,8.06-4.71c4.21-7.55,6.1-16.69,3.8-25.15c-0.5-1.79-2.05-3.67-4.12-3.24c-1.96-0.08-2.89,1.83-3.81,3.22
		c-1.99,3.11-0.41,8.62,3.84,8.56c-1.85,0.76-4,1.77-5.94,0.65C10.9,14.59,10.33,11.9,10.76,9.79z"/>
	<g>
		<path fill="#000" d="M68.79,2.38c1.2-1.46,3.4-0.01,4.94,0.17c-0.06,2.09-0.13,4.19-0.21,6.28c2.28,0.11,4.55,0.25,6.82,0.44
			c-0.27,1.11-0.18,3.32-1.99,2.9c-1.64,0.08-3.29,0.07-4.93,0.09c-0.14,5.6-0.66,11.22-0.14,16.81c-0.02,1.46,0.95,2.56,1.86,3.57
			c1.1-1.14,2.34-2.23,3.01-3.71c1.49-3.12,0.77-6.75,1.93-9.97c0.87-2.84,2.91-5.96,6.16-6.2c1.81-0.12,3.19,1.13,4.57,2.09
			c0.25-0.39,0.76-1.16,1.02-1.54c0.8,0.23,2.41,0.7,3.22,0.93c1.08,5.6-0.75,11.57,0.78,17.18c0.17,1.22,1.87,1.99,2.73,0.95
			c2.27-2.24,1.02-5.55,1.31-8.33c0.23-3.86,1.31-8.3,4.73-10.57c2.21-1.43,4.88-0.46,6.63,1.2c1.33-1.68,3.15-0.85,4.84-0.34
			c-0.03,5.26-0.17,10.52-0.09,15.79c2.23-3.47,4.1-7.19,5.17-11.19c-0.46-1.27-1.84-2.48-1.18-3.92c0.08-2.25,3.52-3.89,4.92-1.88
			c0.15,0.66,0.46,1.98,0.61,2.64c2.28-0.26,5.29-1.96,7.02,0.28c0.1,5.37-2.95,11.43,0.34,16.45c1.7,1.21,3.22-0.91,3.36-2.48
			c-0.11-4.22-0.63-8.75,1.41-12.64c1-2.28,2.91-4.63,5.62-4.62c1.74-0.1,3.03,1.16,4.35,2.07c0.31-0.37,0.93-1.12,1.24-1.49
			c0.83,0.23,2.48,0.68,3.3,0.9c0.38,5.59-0.58,11.24,0.38,16.79c-0.01,1.13,1.31,2.36,2.39,1.64c1.8-1.69,2.62-4.26,2.58-6.68
			c0.08-4.29-0.07-8.59,0.25-12.87c1.41,0.2,2.8,0.48,4.18,0.84c0.05,2.79,0.04,5.59,0.07,8.38c0.97-2.6,1.63-5.34,2.88-7.84
			c0.85-2.41,4.3-1.14,5.26,0.55c0.53,3.5,0.28,7.08,0.57,10.61c1.33-4.06,1.91-8.46,4.16-12.15c1.78-0.86,3.86,0.45,5.15,1.67
			c0.39,5.17-0.7,10.48,0.61,15.58c0.41,0.62,1.23,1.87,1.64,2.5c1.88-1.77,2.11-4.46,3.6-6.48c0.82,3.11,0.02,7.36-3.27,8.71
			c-2.61,0.74-5.15-1.43-5.83-3.86c-1.28-4.33-0.82-8.91-0.92-13.37c-2.25,4.89-3.29,10.23-3.6,15.58c-1.56,0.1-3.65,0.2-4.26-1.63
			c-1.42-4.41-1.08-9.15-1.6-13.71c-3.19,5.09-3.47,11.2-3.71,17.02c-2.26,0.25-6.16,0.39-5.03-3.27c-1.01,1.54-2.25,3.59-4.39,3.38
			c-2.46,0.04-4.01-2.19-4.69-4.29c-1.38,2.2-3.52,4.34-6.31,4.3c-2.18,0.11-3.76-1.59-5.02-3.13c-1.09,1.28-2.16,2.94-4,3.09
			c-2.75,0.23-4.99-2.13-5.7-4.61c-1.19-4.1-0.34-8.41,0.35-12.52c-0.87,0.01-2.61,0.04-3.48,0.05c-1.89,5.46-4.79,10.51-8.41,15
			c0.05,4.64,0.52,9.49-1.25,13.9c-1.2,3.2-4.9,5.27-8.23,4.21c-2.75-0.59-4.62-3.57-3.85-6.3c1.43-5.4,7.48-7.62,9.66-12.5
			c-2.22,0.94-4.14,3.09-6.73,2.78c-2.17-0.02-3.5-1.91-4.83-3.35c-0.9,1.7-2.39,3.51-4.52,3.35c-2.4,0.04-4-2.14-4.52-4.27
			c-1.51,2.42-4.04,4.74-7.12,4.25c-2.85-0.37-4.28-3.19-5.05-5.63c-1.09,1.95-2.1,4.15-4.12,5.33c-1.74,0.84-3.97,0.11-5.07-1.43
			c-1.41-1.78-1.59-4.15-2.09-6.27c-1.57,3.05-3.52,6.4-6.97,7.57c-3.14,1.18-6.58,0.39-9.45-1.12c0.36-1.45,1.1-2.73,2.09-3.83
			c1.65,0.8,4.08,3.4,5.73,1.19c2.05-3.6-1.86-6.56-4.12-8.82c-2.56,3.98-4.35,8.59-7.92,11.81c-1.38,1.46-4.44,1.93-5.21-0.41
			c-1.82-5.59-0.37-11.59-0.56-17.36c-4.75,5.25-6.19,12.42-7.6,19.13c-1.16-0.33-2.84,0.18-3.62-0.99
			c-0.77-1.82-0.51-3.85-0.58-5.76c0.13-5.32-0.12-10.65,0.3-15.96c1.35,0.27,2.69,0.58,4.01,0.96c-0.01,3.65-0.05,7.3-0.02,10.95
			c1.53-3.86,2.46-8.41,5.9-11.09c2.05-1.59,5.38-0.06,6.11,2.2c0.23,4.94-0.59,9.91,0.11,14.83c0.35,0,1.05,0,1.39,0.01
			c2.45-2.94,4.08-6.45,5.85-9.81c-3.17-3.59,1.07-10.17,5.57-7.84c1.34,2.34-0.81,4.58-1.85,6.55c3.41,2.54,7.73,5.23,7.42,10.13
			c1.33-2.16,2.99-4.29,3.25-6.89c0.19-3.63,0.09-7.27,0.13-10.91c-1.86-0.06-3.72-0.13-5.57-0.23c0.25-1.16,0.53-2.33,0.84-3.48
			c1.67,0.07,3.33,0.14,5,0.21C68.58,6.55,68.5,4.45,68.79,2.38z M87.5,16.43c-1.81,0.13-2.59,2.09-3.08,3.57
			c-0.82,3.25-0.96,6.75-0.11,10.01c0.28,1.33,1.2,2.88,2.77,2.73c2.04-0.65,2.8-2.89,3.28-4.76c0.65-3.23,0.88-6.69-0.22-9.84
			C89.55,17.23,88.76,16.02,87.5,16.43z M108.46,16.38c-2.42,0.39-3.24,3.25-3.69,5.3c-0.48,3.29-0.72,6.95,0.89,9.98
			c1.14,2.01,3.68,0.83,4.36-0.92c1.57-3.29,1.76-7.11,1.4-10.69C111.25,18.48,110.46,16.11,108.46,16.38z M144.47,16.4
			c-2.24,0.23-3.08,2.79-3.41,4.67c-0.42,3.24-0.78,6.67,0.39,9.8c0.37,1.11,1.35,2.04,2.6,1.86c1.66-0.59,2.48-2.32,2.93-3.92
			c0.84-3.17,1.09-6.58,0.29-9.79C146.92,17.78,146,16.13,144.47,16.4z M106.07,46.01c-0.5,1.35-0.28,3.37,1.4,3.73
			c1.43,0.58,3.09-0.5,3.49-1.91c1.24-3.24,1.05-6.77,1.15-10.18C109.75,40.14,107.08,42.63,106.07,46.01z"/>
	</g>
</g>
</svg>
