<svg width="1053px" height="298px" viewBox="0 0 1053 298" version="1.1" xmlns="http://www.w3.org/2000/svg">
<g id="#000000ff">
<path fill="#000000" opacity="1.00" d=" M 91.51 7.75 C 99.92 7.75 108.33 7.74 116.75 7.76 C 116.75 31.84 116.74 55.91 116.75 79.99 C 130.00 80.01 143.25 79.99 156.50 80.00 C 156.49 87.25 156.51 94.51 156.48 101.76 C 143.24 101.74 130.00 101.74 116.76 101.76 C 116.74 159.50 116.75 217.24 116.76 274.99 C 108.34 275.01 99.92 275.00 91.50 275.00 C 91.49 217.25 91.53 159.50 91.48 101.75 C 80.07 101.75 68.66 101.75 57.25 101.75 C 57.24 94.50 57.26 87.26 57.25 80.01 C 68.67 79.97 80.09 80.03 91.51 79.98 C 91.50 55.90 91.50 31.83 91.51 7.75 Z" />
<path fill="#000000" opacity="1.00" d=" M 724.10 15.03 C 728.12 8.71 736.94 6.19 743.71 9.40 C 750.62 12.34 754.73 20.80 752.14 27.97 C 748.56 38.66 742.85 48.49 737.23 58.20 C 731.70 48.67 726.13 39.04 722.51 28.60 C 720.81 24.14 721.42 18.97 724.10 15.03 Z" />
<path fill="#000000" opacity="1.00" d=" M 692.38 24.58 C 699.03 22.73 706.86 25.78 709.97 32.07 C 715.10 42.14 718.05 53.14 721.00 64.00 C 710.28 61.16 699.45 58.31 689.42 53.50 C 683.84 51.09 680.22 45.10 680.58 39.05 C 680.78 32.31 685.87 26.20 692.38 24.58 Z" />
<path fill="#000000" opacity="1.00" d=" M 765.70 32.68 C 768.16 27.23 774.09 23.82 780.02 24.07 C 786.92 24.15 793.39 29.26 794.97 35.99 C 796.75 42.60 793.47 50.24 787.21 53.16 C 777.04 58.23 765.93 61.07 755.00 64.00 C 757.87 53.35 760.81 42.61 765.70 32.68 Z" />
<path fill="#000000" opacity="1.00" d=" M 268.26 76.34 C 288.01 73.23 308.98 74.89 327.11 83.76 C 341.94 90.76 354.14 102.33 363.78 115.43 C 363.71 103.62 363.76 91.81 363.75 80.01 C 372.09 80.00 380.42 79.99 388.75 80.01 C 388.75 145.00 388.74 210.00 388.75 274.99 C 380.42 275.01 372.09 275.00 363.75 274.99 C 363.74 263.94 363.76 252.88 363.74 241.83 C 349.35 259.50 329.54 273.32 306.99 277.93 C 284.54 282.44 260.27 280.15 239.92 269.25 C 222.64 259.98 208.20 245.58 198.40 228.63 C 186.35 207.76 183.21 182.61 186.79 159.01 C 190.04 138.06 200.72 118.62 215.87 103.90 C 229.98 89.65 248.39 79.56 268.26 76.34 M 276.25 100.28 C 257.02 103.16 239.06 113.86 227.49 129.50 C 217.55 142.87 211.38 159.29 211.24 176.02 C 210.46 197.63 219.66 218.97 234.55 234.42 C 246.22 246.10 261.70 254.09 278.12 256.21 C 297.46 258.83 317.50 253.57 333.41 242.39 C 349.04 231.69 359.86 214.56 363.44 196.02 C 366.12 182.24 365.68 167.77 361.83 154.25 C 356.49 135.48 343.39 119.27 326.69 109.35 C 311.63 100.42 293.42 97.84 276.25 100.28 Z" />
<path fill="#000000" opacity="1.00" d=" M 725.56 75.80 C 741.71 73.98 758.40 74.78 773.90 79.99 C 789.22 84.99 802.98 94.24 813.92 106.01 C 826.80 119.56 836.11 136.60 839.88 154.95 C 844.64 177.91 842.38 202.59 831.89 223.70 C 824.76 237.83 814.56 250.46 802.13 260.27 C 787.59 271.80 769.43 278.26 751.02 279.70 C 737.76 280.56 724.26 280.06 711.40 276.46 C 693.82 271.89 677.88 261.73 665.87 248.17 C 652.61 233.70 643.28 215.50 640.16 196.06 C 637.43 178.99 638.47 161.23 643.79 144.75 C 649.88 126.01 661.82 109.43 676.89 96.85 C 690.62 85.30 707.78 78.03 725.56 75.80 M 728.50 100.54 C 701.91 104.55 679.35 124.73 669.64 149.41 C 662.09 169.53 662.72 192.73 671.80 212.25 C 678.19 226.19 688.66 238.40 702.05 246.01 C 728.39 261.41 764.10 259.12 787.90 239.85 C 801.39 229.05 810.57 213.32 814.49 196.58 C 818.90 176.73 816.07 155.06 805.46 137.57 C 797.73 125.00 786.71 114.34 773.62 107.45 C 759.85 100.26 743.77 98.29 728.50 100.54 Z" />
<path fill="#000000" opacity="1.00" d=" M 892.83 90.76 C 903.23 79.53 918.91 74.21 934.01 74.98 C 954.55 75.30 972.51 87.56 986.88 101.23 C 981.58 107.02 975.97 112.50 970.57 118.18 C 962.11 110.27 952.53 102.97 941.16 99.97 C 933.22 97.97 924.37 98.02 916.99 101.91 C 909.66 105.82 903.44 112.65 901.93 121.01 C 900.52 127.81 902.65 134.95 906.57 140.56 C 911.25 147.48 918.43 152.11 925.41 156.46 C 939.81 164.97 955.47 171.66 968.22 182.73 C 977.91 190.48 984.56 201.89 986.37 214.17 C 988.21 226.64 986.23 239.86 979.90 250.84 C 972.23 264.27 959.06 274.61 943.96 278.25 C 917.20 284.61 887.00 274.51 870.10 252.63 C 874.86 246.21 880.71 240.41 885.92 234.27 C 894.59 244.12 905.62 252.78 918.78 255.34 C 927.99 257.01 937.93 255.96 946.08 251.14 C 952.65 247.18 958.26 241.34 961.13 234.15 C 964.56 225.33 963.26 214.86 957.82 207.12 C 955.18 203.16 951.39 200.17 947.55 197.47 C 931.67 186.23 912.74 179.88 897.90 167.09 C 887.17 158.62 880.10 145.69 878.99 132.05 C 877.46 117.17 881.95 101.33 892.83 90.76 Z" />
<path fill="#000000" opacity="1.00" d=" M 426.28 80.00 C 435.19 79.99 444.10 80.01 453.02 80.00 C 472.47 122.19 491.88 164.41 511.30 206.62 C 513.75 211.71 515.87 216.96 518.55 221.93 C 539.92 174.55 561.64 127.32 583.14 80.00 C 592.21 80.00 601.27 79.99 610.34 80.01 C 580.69 145.04 550.84 209.99 521.15 275.01 C 519.43 275.00 517.71 274.99 516.00 274.99 C 486.12 209.98 456.18 145.00 426.28 80.00 Z" />
<path fill="#000000" opacity="1.00" d=" M 698.28 153.27 C 705.72 140.04 719.78 130.77 734.90 129.28 C 748.45 127.74 762.49 132.41 772.47 141.69 C 784.68 152.64 790.37 170.15 787.11 186.21 C 784.32 201.35 773.60 214.49 759.66 220.86 C 753.46 208.25 747.31 195.63 741.11 183.03 C 734.77 195.88 728.53 208.77 722.17 221.61 C 710.79 216.98 701.24 207.96 696.23 196.72 C 689.98 183.00 690.73 166.33 698.28 153.27 Z" />
</g>
</svg>
