<?xml version="1.0" standalone="no"?>
<!DOCTYPE svg PUBLIC "-//W3C//DTD SVG 20010904//EN"
 "http://www.w3.org/TR/2001/REC-SVG-20010904/DTD/svg10.dtd">
<svg version="1.0" xmlns="http://www.w3.org/2000/svg"
 width="500.000000px" height="500.000000px" viewBox="0 0 500.000000 500.000000"
 preserveAspectRatio="xMidYMid meet">
<metadata>
Created by potrace 1.15, written by Peter Selinger 2001-2017
</metadata>
<g transform="translate(0.000000,500.000000) scale(0.100000,-0.100000)"
fill="#000000" stroke="none">
<path d="M3090 4390 c-30 -10 -65 -19 -78 -19 -36 -1 -92 -28 -139 -67 -24
-20 -43 -38 -41 -40 2 -2 33 7 68 20 56 21 74 23 135 16 39 -4 81 -11 95 -15
19 -5 22 -4 10 4 -13 9 -12 11 3 11 10 0 25 -6 32 -14 8 -7 33 -17 57 -21 37
-7 25 -10 -78 -15 -124 -7 -144 -11 -144 -35 0 -15 -34 -30 -49 -21 -14 9
-103 -24 -140 -52 -19 -14 -31 -20 -27 -14 26 43 -90 -45 -134 -101 -27 -35
-14 -35 22 0 29 28 78 40 78 20 0 -7 12 1 26 17 14 15 28 25 32 21 4 -4 1 -10
-5 -12 -7 -3 -13 -9 -13 -14 0 -12 37 -6 51 8 6 6 18 9 26 6 8 -3 24 -1 36 5
12 6 53 23 91 37 55 20 66 22 55 8 -13 -15 -10 -16 41 -9 52 7 54 6 35 -9 -19
-16 -19 -16 10 -10 17 4 32 11 33 16 2 5 11 9 20 9 12 0 13 -3 4 -12 -21 -21
-13 -31 13 -14 33 21 42 20 21 -3 -16 -17 -16 -19 6 -26 29 -10 61 -15 120
-18 27 -1 48 -5 48 -8 0 -4 12 -10 28 -13 26 -7 67 -23 127 -53 17 -9 47 -21
67 -29 42 -14 108 -63 108 -79 0 -5 7 -23 15 -39 8 -15 12 -32 10 -37 -9 -13
23 -67 42 -73 10 -3 23 -21 29 -40 8 -27 8 -33 -3 -29 -11 4 -11 0 -3 -22 13
-34 13 -75 -1 -75 -5 0 -7 -5 -4 -10 4 -6 1 -18 -6 -26 -6 -8 -8 -18 -4 -22 4
-4 10 -1 12 6 3 6 9 12 14 12 17 0 9 -21 -20 -52 l-29 -32 -7 40 c-15 78 -23
66 -22 -29 1 -53 4 -97 7 -97 3 0 6 -10 6 -22 1 -13 7 -43 13 -67 7 -24 8 -53
4 -65 -4 -11 -6 -25 -5 -30 2 -5 -5 -5 -15 -1 -42 18 -107 23 -121 9 -7 -8
-19 -14 -25 -14 -7 0 2 -9 18 -20 17 -11 36 -20 43 -20 7 0 20 -7 28 -15 9 -8
24 -15 35 -15 31 0 25 -43 -9 -58 -24 -10 -35 -10 -64 3 -20 8 -51 17 -69 19
-31 5 -29 3 16 -18 53 -26 42 -31 -32 -17 -51 10 -133 -3 -182 -30 -38 -19
-101 -74 -101 -86 0 -4 5 -2 12 5 7 7 18 12 26 12 8 0 30 13 49 30 38 34 63
39 63 12 0 -26 28 -62 57 -73 20 -7 35 -5 65 10 25 12 35 14 27 5 -18 -22 19
-18 59 6 32 20 36 19 33 -10 -1 -12 14 -15 74 -17 41 0 75 3 75 8 0 16 29 10
50 -11 12 -12 25 -18 30 -15 6 4 13 -1 16 -9 3 -9 12 -16 20 -16 8 0 14 -9 14
-20 0 -23 -22 -108 -44 -169 -9 -24 -16 -49 -15 -55 4 -32 -1 -39 -17 -26 -13
11 -16 10 -21 -8 -3 -12 -9 -22 -13 -22 -5 0 -8 -30 -8 -67 1 -44 -3 -67 -10
-66 -7 2 -9 -10 -5 -32 4 -24 2 -35 -7 -35 -9 0 -10 -10 -5 -36 4 -26 3 -34
-5 -29 -7 4 -4 -4 5 -18 9 -15 14 -31 10 -37 -3 -6 5 -24 19 -41 14 -17 26
-35 26 -41 0 -6 3 -8 7 -5 3 4 16 -10 28 -30 23 -41 42 -43 37 -3 -2 20 0 22
8 10 8 -11 10 -7 8 19 -2 20 2 36 9 38 8 3 13 -4 12 -19 0 -13 3 -34 7 -47 5
-17 4 -22 -4 -17 -8 5 -12 0 -12 -14 0 -20 1 -20 19 -3 14 13 19 31 19 68 -1
28 -5 53 -10 56 -6 4 -11 31 -13 60 -2 39 -1 48 6 32 11 -29 39 -31 32 -3 -4
17 -2 19 13 13 18 -7 18 -6 2 11 -10 9 -18 25 -18 34 0 13 2 13 15 -4 14 -19
14 -19 15 3 0 12 -4 23 -10 25 -12 4 -22 88 -10 88 4 0 11 -8 15 -17 6 -17 7
-17 21 1 17 23 19 13 3 -16 -6 -12 -7 -23 -2 -27 5 -3 17 -17 26 -31 13 -18
17 -20 17 -8 0 9 -4 20 -10 23 -5 3 -10 15 -10 27 0 17 2 18 15 8 13 -11 15
-8 15 19 0 47 18 37 26 -14 7 -48 43 -107 44 -72 0 10 18 35 40 56 45 43 47
54 20 134 l-19 58 27 42 27 42 0 235 c0 232 0 235 -24 269 -23 32 -24 38 -18
145 l6 112 -35 79 c-20 44 -53 126 -73 182 -47 124 -157 287 -229 337 -65 44
-125 100 -156 145 -39 55 -101 96 -192 125 -43 14 -128 40 -189 60 -60 19
-132 37 -160 41 -27 3 -59 8 -70 10 -11 2 -45 -5 -75 -15z"/>
<path d="M2440 3912 c-48 -64 -130 -189 -130 -197 0 -4 -9 -20 -20 -35 -14
-19 -22 -52 -27 -104 -7 -85 3 -97 33 -41 10 19 21 35 24 35 17 0 110 215 110
254 0 17 5 38 10 46 6 10 7 3 3 -24 -4 -28 -3 -37 5 -32 7 4 12 13 12 19 0 7
6 24 14 39 12 23 12 26 0 21 -18 -7 -18 8 1 33 8 10 15 22 15 27 0 17 -17 3
-50 -41z"/>
<path d="M2269 3253 c-6 -15 -15 -31 -21 -34 -6 -4 -16 -29 -24 -55 -14 -52
-13 -54 -19 39 -1 15 -5 30 -8 33 -21 21 -20 -213 1 -252 5 -10 13 -36 16 -57
3 -21 11 -47 16 -57 6 -10 10 -29 10 -42 0 -13 7 -32 15 -42 14 -18 15 -17 16
25 3 85 8 137 23 220 8 46 15 100 14 119 -1 19 2 56 6 83 7 43 6 47 -14 47
-13 0 -24 -10 -31 -27z"/>
<path d="M3448 3145 c-3 -3 -33 -7 -67 -10 -68 -5 -85 -11 -76 -26 4 -5 -8 -9
-24 -9 -20 0 -31 -5 -31 -15 0 -7 -7 -18 -16 -23 -9 -5 -17 -28 -20 -58 -3
-27 -9 -53 -14 -59 -13 -17 -18 -117 -8 -147 11 -32 47 -39 49 -10 0 9 3 62 5
116 3 55 9 105 15 112 6 7 27 18 46 25 50 16 122 62 123 77 0 6 9 12 20 12 11
0 20 5 20 10 0 11 -13 14 -22 5z"/>
<path d="M2672 2970 c-70 -15 -121 -49 -148 -101 -13 -26 -31 -49 -40 -53 -9
-4 -14 -9 -10 -13 3 -4 22 9 41 27 35 34 35 34 64 17 19 -11 32 -14 36 -7 3 5
-1 10 -10 10 -9 0 -14 4 -10 9 3 5 1 13 -5 16 -7 4 -1 16 15 31 33 30 45 30
45 0 0 -36 37 -76 70 -76 16 0 36 3 45 6 20 8 48 62 41 80 -3 8 1 14 8 14 17
0 46 -32 46 -51 0 -12 2 -12 9 0 5 8 19 12 35 9 44 -9 29 8 -41 45 -76 39
-128 49 -191 37z"/>
<path d="M335 2798 c-2 -7 -3 -40 -2 -73 2 -60 2 -60 34 -63 49 -5 87 37 80
85 -4 19 -14 41 -24 49 -23 17 -82 18 -88 2z"/>
<path d="M3220 2631 c0 -12 -6 -21 -12 -21 -8 0 -7 -4 3 -10 17 -10 15 -80 -3
-80 -5 0 -8 -10 -6 -22 2 -14 -2 -22 -9 -21 -7 2 -17 -6 -23 -17 -6 -11 -8
-20 -4 -20 4 0 -1 -9 -11 -20 -18 -20 -57 -19 -79 1 -6 5 -17 9 -25 9 -14 0
-14 -2 -1 -10 31 -19 1 -19 -44 1 -53 23 -73 20 -85 -13 -15 -41 26 -95 53
-68 7 7 6 10 -2 10 -7 0 -12 5 -12 10 0 6 15 10 34 10 28 0 48 -10 96 -48 3
-2 -3 -8 -13 -13 -10 -6 -17 -22 -17 -38 0 -17 -14 -45 -34 -71 -31 -39 -45
-90 -25 -90 5 0 9 -4 9 -10 0 -19 -29 2 -32 23 -4 22 22 78 48 108 16 18 19
49 4 49 -11 0 -57 -70 -53 -81 1 -4 -5 -6 -15 -5 -11 1 -21 -13 -31 -41 -17
-47 -31 -56 -32 -20 -1 27 -5 15 -14 -37 -6 -35 -7 -37 -20 -20 -14 18 -14 18
-16 -6 -1 -18 -3 -20 -6 -7 -4 14 -8 16 -19 6 -11 -9 -17 -9 -29 1 -12 10 -17
7 -26 -14 -7 -14 -18 -26 -24 -26 -7 0 -15 -9 -18 -19 -3 -14 -1 -18 9 -14 10
4 14 -3 14 -21 l0 -25 54 21 c43 16 61 18 84 10 41 -14 420 -13 445 2 14 8 21
8 24 0 2 -6 16 -9 31 -8 26 4 25 3 -5 -11 -42 -19 -43 -35 -2 -30 36 4 35 -14
-1 -32 -21 -10 -22 -13 -7 -18 21 -9 49 -63 36 -71 -6 -4 -6 -11 2 -20 7 -9 8
-14 1 -14 -6 0 -14 5 -17 10 -3 6 -13 10 -22 10 -14 0 -14 -3 2 -20 10 -11 15
-20 10 -20 -4 0 -2 -7 5 -15 7 -8 9 -15 4 -15 -4 0 -3 -5 4 -12 7 -7 12 -17
12 -23 -1 -5 -9 -1 -18 11 -10 11 -25 21 -34 21 -15 0 -15 -2 0 -23 9 -13 20
-24 24 -24 4 0 5 -7 1 -17 -5 -13 -2 -15 15 -11 12 4 20 3 17 -2 -3 -4 9 -10
25 -12 34 -5 39 6 10 22 -11 6 -20 16 -20 22 0 7 6 6 18 -3 9 -8 26 -14 37
-14 11 0 27 -6 35 -15 17 -17 50 -23 50 -9 0 5 -11 15 -25 21 -14 6 -34 30
-45 53 -24 49 -24 55 -5 55 13 0 14 8 5 50 0 3 -5 -3 -11 -12 -9 -17 -12 -17
-34 -2 -14 9 -22 20 -19 25 3 5 1 9 -4 9 -6 0 -10 16 -10 36 0 26 3 33 9 23 8
-12 12 -11 24 5 16 21 11 38 -9 30 -30 -11 -23 13 10 35 29 20 36 22 51 10 11
-10 14 -10 9 -1 -4 6 -2 12 3 12 6 0 11 -5 11 -11 0 -6 6 -9 13 -6 7 3 19 -4
25 -14 17 -27 27 -24 46 16 16 34 36 39 36 10 0 -7 6 -20 13 -27 8 -7 16 -20
18 -27 3 -8 6 19 6 60 1 71 1 73 -14 46 -8 -16 -17 -27 -19 -24 -3 3 0 14 8
26 11 18 10 23 -5 38 -16 16 -17 16 -17 -5 0 -19 -2 -21 -19 -10 -11 7 -23 24
-26 37 -7 29 -23 51 -36 51 -5 0 -7 -11 -3 -25 3 -14 3 -25 -1 -25 -10 0 -35
27 -35 38 0 5 -10 17 -21 28 -22 19 -22 19 -10 -4 14 -26 7 -42 -10 -25 -6 6
-16 28 -24 49 -14 42 -40 53 -40 17 -1 -30 -19 -30 -23 -1 -2 13 -8 28 -14 33
-6 7 -7 0 -3 -20 6 -29 6 -29 -9 -11 -9 11 -13 28 -10 39 4 12 -2 27 -17 43
-12 13 -18 24 -12 24 5 0 18 -9 28 -20 10 -11 23 -20 28 -20 6 0 3 8 -6 18
-22 24 -21 35 1 23 20 -11 59 -5 80 12 20 16 14 45 -29 122 -29 53 -46 75 -60
75 -23 0 -25 -18 -4 -26 8 -4 15 -10 15 -15 0 -5 -7 -9 -15 -9 -8 0 -15 -9
-15 -20 0 -21 -16 -28 -22 -10 -1 5 -16 11 -32 12 -57 5 -62 101 -5 120 15 5
-8 54 -30 62 -9 3 -22 9 -28 12 -8 4 -13 -2 -13 -15z"/>
<path d="M4170 1799 c-11 -7 -12 -11 -3 -17 8 -5 9 -13 3 -22 -7 -11 -10 -12
-10 -2 0 7 -4 10 -10 7 -13 -8 -13 -51 0 -76 7 -11 7 -19 1 -19 -5 0 -12 6
-14 13 -3 7 -6 5 -6 -5 -1 -16 9 -22 30 -20 3 1 4 -10 1 -23 -2 -15 0 -25 7
-25 6 0 11 -5 11 -11 0 -6 7 -17 15 -25 13 -14 15 -10 17 38 l1 53 6 -65 6
-65 12 45 12 45 -3 -46 c-2 -33 1 -46 10 -46 7 0 15 6 18 14 3 7 1 13 -4 13
-6 0 -10 8 -9 18 0 10 3 12 6 5 2 -7 9 -13 15 -13 18 0 1 82 -31 146 -35 71
-60 97 -81 83z"/>
<path d="M3796 1754 c-3 -8 -10 -13 -15 -9 -15 9 -61 -40 -61 -64 0 -30 -24
-22 -28 10 -5 32 -22 50 -22 22 0 -12 -3 -30 -6 -40 -5 -15 -4 -15 5 -3 8 11
11 12 11 2 0 -7 11 -28 24 -45 12 -18 27 -39 31 -47 8 -13 7 -13 -11 0 -10 8
-21 17 -24 20 -70 68 -83 52 -14 -18 44 -45 64 -79 64 -105 -1 -7 -7 3 -15 21
-8 18 -22 35 -32 39 -17 7 -24 14 -73 73 l-21 25 7 -24 c4 -16 3 -21 -5 -17
-6 4 -19 2 -28 -3 -19 -11 -19 -11 30 -15 6 -1 26 -17 44 -36 29 -31 32 -40
30 -87 -2 -28 0 -50 4 -47 4 2 10 -7 13 -21 4 -16 11 -22 21 -19 11 5 13 2 9
-10 -3 -9 -2 -16 4 -16 15 0 21 38 8 50 -7 5 -16 7 -19 3 -4 -3 -7 1 -7 10 0
9 -4 17 -9 17 -5 0 -11 16 -13 35 -2 19 -1 35 3 35 11 0 19 -29 13 -45 -4 -9
0 -15 10 -15 9 0 16 -7 16 -15 0 -8 5 -15 11 -15 6 0 8 7 5 16 -3 8 -2 12 3 9
5 -3 12 3 14 12 3 11 5 8 6 -9 0 -16 -4 -28 -10 -28 -6 0 -8 -9 -4 -21 4 -13
1 -27 -10 -39 -10 -11 -15 -26 -11 -35 4 -11 -2 -19 -19 -25 -14 -5 -25 -15
-25 -21 0 -6 -9 -9 -19 -6 -11 3 -22 -1 -25 -9 -7 -19 28 -13 52 9 11 10 26
15 34 12 16 -6 45 22 46 45 4 64 11 110 22 129 10 20 9 25 -10 38 -15 10 -18
19 -11 26 6 6 16 4 28 -8 17 -18 18 -18 21 0 4 19 -16 37 -35 30 -7 -2 -10 2
-6 11 4 11 9 12 19 3 11 -9 14 -8 14 4 0 8 -5 17 -11 19 -6 2 -10 12 -8 21 4
16 6 16 27 1 14 -10 20 -20 15 -25 -5 -5 -8 -23 -5 -39 3 -22 10 -30 24 -30
11 0 18 -5 15 -12 -2 -7 -16 -12 -30 -12 -29 1 -30 -2 -30 -95 1 -28 -2 -39
-8 -30 -7 12 -9 11 -10 -1 0 -8 -2 -31 -5 -50 -3 -25 -1 -31 6 -20 5 8 10 23
10 33 0 9 7 17 15 17 22 0 34 39 24 75 -11 37 -11 35 0 35 16 0 23 -60 11 -91
-7 -16 -16 -29 -20 -29 -4 0 -11 -11 -14 -25 -4 -14 -11 -25 -17 -25 -6 0 -7
-6 -3 -12 5 -8 1 -7 -10 2 -16 13 -20 12 -37 -9 -10 -13 -16 -28 -12 -34 3 -5
1 -7 -5 -3 -6 3 -13 2 -17 -3 -3 -6 -12 -8 -20 -4 -10 3 -15 -1 -15 -15 0 -11
6 -23 13 -25 9 -4 8 -6 -2 -6 -11 -1 -10 -5 3 -20 10 -10 13 -22 8 -25 -5 -3
-15 6 -22 19 -14 26 -35 35 -28 13 3 -7 -5 -18 -16 -23 -12 -6 -20 -19 -18
-28 4 -24 -46 -18 -81 9 -25 21 -39 42 -17 29 6 -3 16 -3 23 2 6 4 17 8 23 9
16 3 54 41 54 55 0 8 -4 8 -14 0 -12 -10 -15 -7 -19 16 -4 26 -5 26 -11 7 -6
-16 -13 -20 -28 -16 -18 4 -20 1 -16 -21 3 -18 1 -27 -7 -27 -11 0 -25 -21
-25 -36 0 -3 17 -20 37 -39 40 -37 39 -57 -3 -35 -22 12 -27 12 -34 0 -8 -13
-10 -13 -10 -1 0 8 -3 11 -6 8 -4 -4 -1 -13 6 -22 19 -23 6 -29 -60 -29 -34 0
-56 -4 -53 -10 4 -5 -1 -7 -11 -3 -10 4 -20 7 -22 7 -2 0 -4 8 -4 18 -1 15 -2
15 -12 -2 -8 -15 -8 -21 0 -24 7 -2 12 -11 12 -20 0 -12 -3 -13 -12 -4 -7 7
-18 12 -25 12 -7 0 -27 15 -44 33 -17 17 -28 26 -24 20 4 -8 0 -13 -9 -13 -9
0 -16 7 -16 15 0 8 -5 15 -11 15 -5 0 -7 -4 -4 -10 3 -5 0 -19 -8 -31 -8 -11
-18 -16 -21 -11 -3 6 -1 12 5 14 7 2 5 9 -5 17 -14 12 -16 12 -11 0 7 -18 -30
-59 -51 -59 -9 0 -14 -6 -11 -12 3 -9 35 -13 113 -14 155 -1 236 6 231 20 -4
9 3 10 28 2 l33 -10 -33 -41 c-18 -22 -43 -60 -55 -85 -12 -25 -37 -57 -54
-72 -23 -21 -27 -27 -14 -28 12 0 15 -5 11 -17 -6 -16 -3 -15 17 2 l23 20 -18
-32 c-11 -18 -24 -33 -29 -33 -5 0 -7 -2 -4 -5 8 -9 38 6 38 19 0 16 92 95
111 96 19 0 42 24 32 33 -3 4 -1 7 5 7 7 0 12 8 12 18 0 21 29 64 30 44 0 -7
-5 -23 -12 -35 -6 -12 -13 -35 -15 -51 -1 -16 -10 -38 -20 -48 -9 -10 -13 -18
-9 -18 7 0 -67 -91 -106 -132 -10 -10 -18 -29 -18 -42 0 -14 -11 -37 -25 -52
-14 -15 -25 -33 -25 -40 0 -7 -4 -16 -10 -19 -22 -14 -9 55 16 85 15 17 23 34
19 38 -11 11 -44 -37 -55 -81 -6 -23 -15 -50 -21 -60 -15 -26 -4 -32 23 -13
12 9 31 16 42 16 11 0 28 8 39 18 19 16 20 16 8 -5 -19 -38 -11 -39 21 -3 25
29 30 31 25 13 -3 -13 -2 -25 3 -28 4 -2 5 -17 2 -32 -5 -25 -4 -27 11 -14 10
7 17 19 17 27 0 7 9 29 21 48 12 20 16 36 11 36 -6 0 -14 -9 -17 -20 -3 -11
-11 -20 -17 -20 -5 0 -8 7 -4 15 3 8 1 15 -4 15 -10 0 -7 35 8 72 18 44 126
159 169 180 18 9 33 29 44 61 14 39 15 46 3 36 -35 -29 -25 -2 86 221 37 74
80 165 96 203 15 37 32 67 37 67 11 0 13 7 -51 -141 -28 -64 -70 -150 -93
-193 -23 -42 -39 -80 -36 -83 7 -6 183 346 199 398 12 40 4 65 -12 39 -12 -19
-13 -4 -1 37 7 25 5 35 -11 52 -10 12 -23 19 -29 16 -5 -4 -9 -1 -9 4 0 6 4
11 9 11 5 0 9 11 9 25 0 14 -5 25 -10 25 -6 0 -8 6 -5 14 3 8 -1 13 -11 12
-13 -1 -16 6 -15 30 2 19 -4 37 -12 44 -8 7 -15 9 -15 4 0 -4 -7 1 -15 12 -8
10 -15 31 -15 46 0 17 -5 26 -12 24 -7 -1 -10 -1 -5 1 4 3 7 13 7 24 0 10 4
19 9 19 5 0 11 9 14 20 6 24 -18 28 -27 4z"/>
<path d="M3980 1674 c0 -3 7 -12 15 -20 11 -11 12 -20 5 -34 -6 -11 -14 -29
-20 -39 -6 -14 -6 -21 3 -24 16 -6 -24 -45 -41 -39 -6 2 -12 -2 -13 -10 0 -7
-2 -24 -4 -38 -2 -16 6 -35 22 -52 18 -18 23 -32 18 -47 -11 -35 4 -23 21 17
25 58 44 125 44 155 0 15 5 27 10 27 6 0 10 5 10 11 0 5 -4 7 -10 4 -10 -6
-15 26 -11 75 1 20 0 22 -9 10 -9 -11 -13 -12 -17 -2 -5 12 -23 17 -23 6z"/>
<path d="M4336 1518 c-2 -7 -9 -33 -16 -57 -14 -54 -24 -73 -119 -224 -78
-126 -128 -180 -280 -305 -103 -84 -175 -148 -151 -136 21 11 219 170 258 207
17 17 32 27 32 23 0 -11 -118 -120 -231 -212 -51 -42 -100 -86 -108 -98 -13
-18 -13 -20 -1 -10 76 56 219 173 284 234 27 25 43 36 35 24 -20 -29 -121
-121 -297 -268 -84 -71 -158 -138 -164 -149 -12 -24 -21 -31 167 128 123 104
147 120 119 82 -10 -15 -23 -27 -27 -27 -26 -1 -281 -246 -289 -278 -4 -14 -2
-20 5 -15 10 6 7 -13 -8 -49 -4 -10 -3 -18 3 -18 5 0 17 19 27 42 11 28 19 38
24 29 6 -8 12 -3 21 19 15 36 31 49 22 18 -8 -31 13 -15 29 23 11 28 14 29 19
13 6 -15 13 -7 37 41 17 33 41 71 52 85 21 24 21 23 -1 -15 -13 -22 -31 -57
-41 -78 -30 -65 3 -37 47 41 23 40 54 87 69 105 l29 32 -25 -35 c-38 -55 -89
-158 -85 -172 3 -7 17 10 33 37 61 108 75 130 75 122 0 -4 -16 -39 -35 -77
-37 -74 -39 -80 -27 -80 4 0 20 25 36 55 30 55 50 71 23 18 -39 -75 -27 -98
13 -25 19 34 20 21 2 -28 -5 -13 -3 -13 11 -1 9 7 17 20 17 28 0 8 4 12 9 8 5
-3 12 4 16 15 3 11 12 20 19 20 6 0 18 17 25 38 40 112 217 450 318 603 48 74
55 96 23 79 -23 -12 -25 -3 -5 23 13 18 14 17 31 -7 15 -24 15 -28 1 -44 -41
-45 -326 -588 -342 -652 -4 -14 34 55 84 153 103 204 231 431 268 473 27 32
19 16 -111 -221 -36 -66 -66 -124 -66 -130 0 -9 39 54 149 243 24 41 45 71 48
69 4 -5 -30 -73 -131 -258 -59 -109 -60 -126 -1 -29 25 41 50 82 55 90 5 8 30
55 56 104 25 48 48 86 50 83 5 -5 -75 -172 -135 -281 -17 -32 -30 -60 -28 -62
7 -8 72 102 139 236 69 136 86 187 48 141 -23 -27 -25 -24 -7 18 13 31 14 31
31 12 18 -20 16 -25 -73 -205 -50 -102 -91 -188 -91 -193 0 -16 33 42 115 201
84 165 109 203 59 90 -37 -83 -45 -106 -36 -100 4 2 23 34 41 70 31 61 65 106
47 60 -19 -44 -17 -57 3 -26 24 36 19 56 -21 89 -13 10 -30 27 -38 38 -8 11
12 -4 44 -32 33 -29 62 -50 65 -47 3 2 -21 30 -52 61 -31 31 -55 58 -52 61 3
3 27 -18 54 -46 50 -52 76 -66 64 -35 -4 11 -3 14 6 9 16 -10 81 -13 81 -4 0
4 9 5 21 3 37 -7 15 19 -42 50 -31 17 -76 47 -100 67 -37 31 -176 108 -194
108 -3 0 -5 -7 -5 -15 0 -8 -5 -15 -10 -15 -6 0 -8 11 -4 25 6 25 -3 37 -10
13z"/>
</g>
</svg>
